<svg height="100%" width="100%" id="bg-svg" viewBox="0 0 1440 600" xmlns="http://www.w3.org/2000/svg" class="transition duration-300 ease-in-out delay-150"><defs><linearGradient id="gradient"><stop offset="5%" stop-color="#0693e366"></stop><stop offset="95%" stop-color="#32ded466"></stop></linearGradient></defs><path d="M 0,600 C 0,600 0,150 0,150 C 69.59808612440193,141.2822966507177 139.19617224880386,132.56459330143542 235,128 C 330.80382775119614,123.43540669856459 452.81339712918657,123.02392344497605 562,139 C 671.1866028708134,154.97607655502395 767.5502392344498,187.3397129186603 876,187 C 984.4497607655502,186.6602870813397 1104.9856459330144,153.61722488038276 1201,142 C 1297.0143540669856,130.38277511961724 1368.5071770334928,140.19138755980862 1440,150 C 1440,150 1440,600 1440,600 Z" stroke="none" stroke-width="0" fill="url(#gradient)" class="transition-all duration-300 ease-in-out delay-150"></path><defs><linearGradient id="gradient"><stop offset="5%" stop-color="#0693e388"></stop><stop offset="95%" stop-color="#32ded488"></stop></linearGradient></defs><path d="M 0,600 C 0,600 0,300 0,300 C 97.78947368421055,314.82296650717706 195.5789473684211,329.64593301435406 284,325 C 372.4210526315789,320.35406698564594 451.47368421052636,296.2392344497608 540,279 C 628.5263157894736,261.7607655502392 726.5263157894736,251.39712918660285 819,248 C 911.4736842105264,244.60287081339715 998.421052631579,248.17224880382776 1101,258 C 1203.578947368421,267.82775119617224 1321.7894736842104,283.9138755980861 1440,300 C 1440,300 1440,600 1440,600 Z" stroke="none" stroke-width="0" fill="url(#gradient)" class="transition-all duration-300 ease-in-out delay-150"></path><defs><linearGradient id="gradient"><stop offset="5%" stop-color="#0693e3ff"></stop><stop offset="95%" stop-color="#32ded4ff"></stop></linearGradient></defs><path d="M 0,600 C 0,600 0,450 0,450 C 114.71770334928232,428.22966507177034 229.43540669856463,406.4593301435407 313,407 C 396.56459330143537,407.5406698564593 448.97607655502384,430.3923444976076 535,444 C 621.0239234449762,457.6076555023924 740.6602870813398,461.97129186602876 850,452 C 959.3397129186602,442.02870813397124 1058.3827751196172,417.7224880382775 1155,415 C 1251.6172248803828,412.2775119617225 1345.8086124401914,431.1387559808612 1440,450 C 1440,450 1440,600 1440,600 Z" stroke="none" stroke-width="0" fill="url(#gradient)" class="transition-all duration-300 ease-in-out delay-150"></path></svg>